<svg width="400" height="400" viewBox="0 0 400 400" fill="none" xmlns="http://www.w3.org/2000/svg">
<circle cx="200" cy="200" r="200" fill="#0B56F5"/>
<path d="M302 52L308.735 72.7295H330.532L312.898 85.541L319.634 106.271L302 93.459L284.366 106.271L291.102 85.541L273.468 72.7295H295.265L302 52Z" fill="white"/>
<path d="M97 297L103.735 317.729H125.532L107.898 330.541L114.634 351.271L97 338.459L79.3664 351.271L86.1019 330.541L68.4683 317.729H90.2646L97 297Z" fill="white"/>
<ellipse cx="200.5" cy="203.473" rx="114.621" ry="158.627" transform="rotate(-47.7878 200.5 203.473)" fill="white"/>
<ellipse cx="200.385" cy="200.447" rx="93.5131" ry="129.416" transform="rotate(-47.7878 200.385 200.447)" fill="#0B56F5"/>
<rect x="15" y="158" width="370" height="84" fill="#0B56F5"/>
<path d="M85.2773 164.249L87.3763 164.13L87.4763 164.129C93.3427 164.076 97.9285 166.168 101.234 170.405C101.707 171.134 101.977 171.498 102.044 171.498L105.81 167.764L109.575 163.929L110.375 163.922C111.242 163.914 111.744 164.11 111.881 164.509C111.949 164.641 110.891 169.384 108.709 178.738C106.396 188.359 105.239 193.07 105.237 192.87C105.108 193.271 104.176 193.479 102.443 193.495L100.343 193.514L100.04 193.217C99.7711 192.953 99.699 192.353 99.8239 191.419C100.326 187.947 100.396 184.647 100.034 181.516C99.2418 174.99 96.6402 171.147 92.2295 169.987C91.6283 169.859 90.6944 169.801 89.4278 169.812C86.9607 169.768 84.3644 170.191 81.639 171.083C78.3821 172.179 75.4634 173.805 72.8828 175.962C66.9908 180.549 62.6564 187.822 59.8798 197.781C58.1396 204.397 57.2889 209.838 57.3275 214.104C57.3552 217.171 57.7785 219.734 58.5971 221.793C60.3714 226.311 63.6648 229.248 68.4773 230.604C68.9452 230.733 69.4127 230.829 69.88 230.891C75.4239 232.041 80.1811 230.965 84.1513 227.662C85.541 226.516 86.5292 225.207 87.1159 223.735C88.7864 216.786 89.6222 213.379 89.6234 213.512C89.6222 213.379 89.0544 213.25 87.9199 213.127L83.2183 212.97C80.8184 212.992 79.4845 212.937 79.2166 212.806C78.8154 212.676 78.6127 212.378 78.6085 211.912L79.5732 208.003C79.8362 207.6 80.5347 207.427 81.6685 207.484C82.0019 207.481 82.7018 207.474 83.7685 207.465C94.5704 207.634 102.07 207.532 106.267 207.161L107.167 207.153L107.469 207.45C107.738 207.714 107.874 207.947 107.876 208.147L107.011 212.055C106.882 212.522 106.184 212.762 104.917 212.774C102.784 212.793 101.452 212.905 100.92 213.11C100.788 213.178 100.622 213.312 100.424 213.514C100.358 213.648 99.4896 217.09 97.8173 223.838C96.2116 230.586 95.3427 234.028 95.2106 234.162C94.9476 234.565 94.6488 234.701 94.3143 234.57C93.5119 234.311 92.1684 233.19 90.2837 231.207C90.0146 230.943 89.8125 230.711 89.6773 230.512L89.071 229.818L88.2783 230.625C84.7735 233.79 80.2915 235.797 74.8323 236.647C72.5687 237.001 70.0025 237.057 67.1335 236.817C61.5253 235.934 56.9713 233.675 53.4716 230.04C51.8572 228.455 50.507 226.6 49.4211 224.476C47.794 221.491 46.7635 218.134 46.3297 214.404C46.048 212.74 45.9935 210.407 46.1664 207.405C46.23 207.071 46.2609 206.804 46.2591 206.604C46.9915 199.131 49.5271 192.007 53.866 185.235C55.1824 183.356 56.3351 181.812 57.3242 180.603C59.1042 178.387 61.3172 176.133 63.9633 173.843C70.7129 168.248 77.8176 165.05 85.2773 164.249ZM140.355 190.052L142.354 189.934L142.454 189.933C143.921 189.986 145.224 190.308 146.362 190.897C147.501 191.42 148.507 192.145 149.382 193.07L150.189 193.863L150.785 193.358C152.371 191.81 154.101 191.394 155.974 192.11C156.91 192.435 157.549 192.996 157.889 193.793C158.162 194.524 158.108 195.825 157.724 197.695C157.404 199.164 156.409 203.307 154.737 210.122C152.425 219.877 151.238 224.955 151.175 225.355C150.925 227.224 150.903 228.525 151.11 229.256C151.246 229.588 151.449 229.853 151.717 230.051C151.919 230.249 152.22 230.346 152.62 230.342C153.086 230.338 153.452 230.268 153.718 230.132C154.976 229.188 156.249 226.143 157.535 220.998C157.857 219.728 158.118 219.026 158.316 218.89C158.448 218.756 159.248 218.682 160.714 218.669C162.181 218.655 163.015 218.714 163.216 218.846C163.351 218.978 163.42 219.244 163.423 219.644C163.427 220.044 163.268 220.846 162.945 222.049C160.555 230.471 157.094 234.835 152.563 235.143C149.165 235.374 146.421 234.232 144.332 231.717C143.995 231.321 143.691 230.89 143.42 230.426C143.283 230.027 143.181 229.828 143.115 229.828L142.42 230.435C140.106 232.522 137.818 233.91 135.558 234.597C131.238 236.103 127.332 235.472 123.84 232.703C123.437 232.373 123.067 232.01 122.73 231.613C121.721 230.622 120.877 229.43 120.198 228.036C118.161 223.987 117.718 219.225 118.868 213.747C120.336 206.467 123.748 200.436 129.105 195.654C132.676 192.488 136.426 190.621 140.355 190.052ZM142.497 194.733C139.76 194.291 137.138 195.614 134.633 198.704C133.974 199.577 133.382 200.515 132.858 201.52C131.876 203.462 130.71 207.273 129.361 212.952C128.524 216.16 127.916 218.966 127.538 221.369C127.291 223.638 127.307 225.371 127.585 226.569C128.272 228.896 129.584 230.218 131.521 230.533C132.656 230.723 134.02 230.477 135.614 229.796C138.002 228.441 140.248 226.188 142.353 223.035L142.847 222.331L145.257 212.408L147.667 202.386L147.459 201.588C146.825 197.794 145.304 195.541 142.898 194.829C142.764 194.764 142.63 194.731 142.497 194.733ZM182.003 164.974C187.2 164.527 189.764 164.303 189.698 164.304C190.298 164.299 190.7 164.528 190.904 164.993C190.973 165.259 188.663 175.214 183.974 194.857L176.65 225.325C176.53 226.859 176.541 228.092 176.683 229.025C176.819 229.357 177.022 229.621 177.29 229.819C177.492 230.017 177.793 230.115 178.193 230.111C178.66 230.107 179.026 230.037 179.291 229.901C180.549 228.956 181.822 225.911 183.109 220.766C183.43 219.496 183.691 218.794 183.89 218.659C184.022 218.524 184.821 218.45 186.288 218.437C187.754 218.424 188.588 218.483 188.789 218.614C188.924 218.747 188.993 219.013 188.997 219.413C189 219.813 188.841 220.614 188.518 221.817C186.063 230.44 182.436 234.806 177.636 234.916C177.17 234.92 176.703 234.891 176.236 234.829C172.098 234.333 169.445 232.19 168.277 228.401C167.864 226.938 167.783 225.372 168.035 223.703L174.105 198.347C178.217 181.242 180.137 172.424 179.866 171.893C179.395 171.431 177.959 171.177 175.559 171.132C173.959 171.147 173.024 170.922 172.753 170.458L172.65 170.159L173.132 168.154C173.387 166.885 173.647 166.116 173.911 165.847C174.109 165.645 174.308 165.543 174.508 165.542L182.003 164.974ZM217.012 189.358L219.011 189.24L219.111 189.239C220.578 189.292 221.881 189.614 223.019 190.203C224.158 190.726 225.164 191.451 226.039 192.376L226.846 193.169L227.442 192.664C229.028 191.116 230.758 190.7 232.631 191.416C233.567 191.741 234.206 192.302 234.546 193.099C234.819 193.83 234.765 195.131 234.381 197.001C234.061 198.47 233.066 202.613 231.394 209.428C229.082 219.183 227.895 224.261 227.832 224.661C227.582 226.53 227.56 227.831 227.767 228.562C227.903 228.894 228.106 229.159 228.374 229.357C228.576 229.555 228.877 229.652 229.277 229.648C229.743 229.644 230.11 229.574 230.375 229.438C231.633 228.494 232.906 225.449 234.192 220.304C234.514 219.034 234.775 218.332 234.973 218.196C235.105 218.062 235.905 217.988 237.371 217.975C238.838 217.961 239.672 218.021 239.873 218.152C240.008 218.284 240.077 218.55 240.08 218.95C240.084 219.35 239.925 220.152 239.602 221.355C237.212 229.777 233.751 234.141 229.22 234.449C225.822 234.68 223.078 233.538 220.989 231.024C220.652 230.627 220.348 230.196 220.077 229.732C219.94 229.333 219.838 229.134 219.772 229.134L219.077 229.741C216.763 231.828 214.475 233.216 212.215 233.903C207.895 235.409 203.989 234.778 200.497 232.009C200.094 231.679 199.724 231.316 199.387 230.919C198.378 229.928 197.534 228.736 196.855 227.342C194.818 223.293 194.375 218.531 195.525 213.053C196.993 205.773 200.405 199.742 205.762 194.96C209.333 191.794 213.083 189.927 217.012 189.358ZM219.154 194.039C216.417 193.597 213.795 194.92 211.29 198.01C210.631 198.883 210.039 199.821 209.515 200.826C208.533 202.768 207.367 206.579 206.018 212.258C205.181 215.466 204.573 218.272 204.195 220.675C203.948 222.944 203.964 224.677 204.242 225.875C204.929 228.202 206.241 229.524 208.178 229.839C209.313 230.029 210.677 229.783 212.271 229.102C214.659 227.747 216.905 225.494 219.01 222.341L219.504 221.637L221.914 211.714L224.324 201.692L224.116 200.894C223.482 197.1 221.961 194.847 219.555 194.135C219.421 194.07 219.287 194.037 219.154 194.039ZM258.084 188.986C260.348 188.632 262.651 188.945 264.993 189.923C266.8 190.707 268.177 191.828 269.123 193.286L269.528 193.783L269.923 193.179C271.571 191.164 273.592 189.779 275.985 189.024C278.911 188.197 281.583 188.707 283.999 190.551C284.469 190.881 284.872 191.244 285.209 191.641C286.018 192.567 286.561 193.662 286.839 194.926C287.526 197.12 287.379 199.288 286.398 201.43C285.352 203.706 283.563 204.989 281.033 205.279C278.901 205.498 277.428 204.745 276.612 203.019C276.409 202.687 276.271 202.155 276.197 201.422C276.187 200.289 276.411 199.254 276.869 198.316C277.392 197.112 278.35 196.136 279.743 195.39C280.341 195.118 280.639 194.915 280.637 194.782C280.367 194.384 279.897 194.022 279.228 193.695C278.893 193.564 278.392 193.502 277.726 193.508C277.059 193.514 276.56 193.586 276.228 193.722C274.57 194.67 273.286 196.449 272.376 199.057L266.785 222.209C266.337 224.279 266.251 225.814 266.527 226.811C267.076 228.606 268.518 229.46 270.85 229.372C271.65 229.298 272.415 229.125 273.146 228.851C275.803 227.827 277.982 225.507 279.683 221.892C280.141 220.954 280.499 220.018 280.757 219.082C281.016 218.213 281.312 217.744 281.645 217.674C281.844 217.605 282.544 217.566 283.744 217.555C285.21 217.542 286.011 217.601 286.145 217.733C286.481 217.997 286.52 218.563 286.261 219.432C285.747 221.637 284.833 223.679 283.516 225.557C280.096 230.655 275.888 233.493 270.893 234.072C270.759 234.073 270.626 234.074 270.493 234.075C266.628 234.31 263.517 233.072 261.159 230.36C261.025 230.294 260.924 230.195 260.856 230.063C260.452 229.6 260.216 229.335 260.149 229.269L259.555 229.974C258.632 231.049 257.706 231.858 256.777 232.4C254.789 233.684 252.827 234.302 250.894 234.253C249.626 234.198 248.357 233.876 247.085 233.287C244.942 232.307 243.526 230.519 242.836 227.926C242.073 224.599 242.647 221.827 244.561 219.61C246.411 217.793 248.439 217.208 250.645 217.854C251.448 218.114 252.084 218.508 252.556 219.037C253.835 220.426 253.919 222.292 252.807 224.635C252.218 225.907 251.294 226.882 250.033 227.56C249.436 227.899 249.104 228.069 249.038 228.069C249.04 228.336 249.544 228.732 250.548 229.256C250.816 229.387 251.283 229.449 251.95 229.443C252.617 229.437 253.116 229.366 253.448 229.23C255.107 228.348 256.358 226.603 257.201 223.995L262.987 200.342C263.114 199.674 263.173 198.74 263.162 197.54C263.153 196.607 263.081 195.974 262.945 195.642C262.129 193.916 260.423 193.298 257.828 193.788C255.365 194.277 253.18 195.964 251.273 198.848C250.156 200.658 249.34 202.532 248.824 204.47C248.628 204.872 248.496 205.107 248.43 205.174C248.298 205.309 247.499 205.382 246.032 205.396L243.832 205.416L243.53 205.118C243.328 204.92 243.225 204.654 243.222 204.321C243.473 202.585 244.388 200.477 245.965 197.996C246.031 197.862 246.096 197.728 246.162 197.594C249.053 192.968 252.794 190.134 257.385 189.092C257.652 189.09 257.885 189.054 258.084 188.986ZM310.076 167.214C312.47 166.593 314.209 167.177 315.292 168.967C315.631 169.564 315.837 170.229 315.91 170.962C315.919 171.962 315.694 172.93 315.236 173.868C313.722 176.015 311.8 177.266 309.47 177.62C308.737 177.627 307.968 177.434 307.165 177.041C306.495 176.714 305.956 176.119 305.548 175.256C305.346 174.991 305.208 174.459 305.134 173.659C305.124 172.593 305.316 171.658 305.709 170.854C306.625 168.979 308.081 167.766 310.076 167.214ZM301.67 188.691C302.135 188.554 302.868 188.481 303.868 188.471C305.402 188.524 306.738 188.845 307.877 189.435C308.748 189.894 309.419 190.388 309.89 190.917C310.428 191.379 310.934 192.041 311.408 192.903C312.02 194.165 312.299 195.495 312.245 196.896C312.255 198.029 312.195 198.83 312.066 199.298C312.001 199.432 310.539 203.612 307.68 211.838C304.947 219.33 303.485 223.476 303.292 224.278C302.645 226.484 302.559 227.952 303.032 228.681C303.369 229.078 304.07 229.138 305.134 228.862C307.728 228.238 309.799 224.986 311.346 219.105C311.669 218.035 311.998 217.466 312.33 217.396C312.53 217.328 313.229 217.288 314.429 217.277C315.896 217.264 316.696 217.323 316.831 217.455C317.233 217.718 317.24 218.418 316.85 219.555C316.14 222.162 315.062 224.605 313.616 226.885C310.986 230.909 307.973 233.169 304.577 233.667C303.38 233.944 302.146 233.889 300.876 233.5C299.539 233.112 298.434 232.622 297.562 232.03C296.085 230.844 295.103 229.152 294.616 226.957C294.338 225.693 294.393 224.359 294.78 222.955C294.908 222.421 296.338 218.308 299.068 210.616C301.41 204.194 302.906 199.981 303.554 197.975C304.202 195.902 304.289 194.468 303.815 193.672C303.61 193.141 302.909 193.047 301.712 193.391C299.717 193.876 297.969 195.992 296.47 199.739C295.63 202.747 295.21 204.184 295.209 204.05C295.012 204.452 294.881 204.687 294.815 204.754C294.683 204.889 293.884 204.963 292.417 204.976L290.217 204.996L289.914 204.698C289.713 204.5 289.61 204.235 289.607 203.901C289.731 202.833 290.282 201.162 291.262 198.886C292.046 197.146 292.866 195.705 293.723 194.564C294.579 193.356 295.668 192.146 296.99 190.934C298.446 189.787 300.006 189.04 301.67 188.691ZM346.931 188.182C348.995 187.896 350.863 187.946 352.533 188.331C353.535 188.589 354.572 188.946 355.643 189.403C358.053 190.581 359.603 192.334 360.29 194.661C360.428 195.126 360.502 195.892 360.511 196.959C360.522 198.159 360.463 198.993 360.334 199.461C359.752 201.466 358.801 203.208 357.481 204.687C355.631 206.57 352.844 208.029 349.12 209.063C346.06 209.824 341.898 210.328 336.634 210.576L334.234 210.597L334.039 211.199C333.406 214.872 333.088 216.641 333.087 216.508C332.776 218.911 332.761 221.045 333.045 222.909C333.81 226.435 335.794 228.351 338.997 228.655C339.265 228.719 339.565 228.75 339.898 228.747C343.365 228.716 346.689 227.719 349.872 225.757C351.463 224.809 353.085 223.494 354.736 221.812C355.925 220.602 356.754 220.061 357.221 220.19L358.634 221.577C359.577 222.635 359.951 223.399 359.755 223.867C359.427 224.47 358.305 225.68 356.388 227.498C353.21 229.993 349.492 231.727 345.234 232.699C343.571 233.114 341.606 233.332 339.34 233.352C337.273 233.371 335.538 233.153 334.134 232.699C332.127 231.984 330.317 230.867 328.703 229.348C327.492 228.093 326.546 226.734 325.866 225.274C324.577 222.819 323.817 219.892 323.587 216.494C323.325 209.696 325.237 203.679 329.323 198.441C330.576 196.83 331.963 195.451 333.486 194.304C337.456 191.001 341.938 188.96 346.931 188.182ZM350.275 192.952C347.47 192.444 344.709 193.135 341.993 195.027C339.607 196.582 337.763 199.065 336.46 202.477C335.743 204.284 335.387 205.387 335.39 205.787C335.393 206.053 337.792 205.965 342.588 205.522C343.055 205.517 343.454 205.48 343.787 205.411C348.183 204.904 351.205 203.644 352.853 201.629C353.578 200.689 354.035 199.584 354.223 198.316C354.535 195.913 353.653 194.254 351.578 193.34C351.176 193.143 350.742 193.014 350.275 192.952Z" fill="white"/>
</svg>
